<?xml version="1.0" encoding="utf-8"?>
<!-- Generator: Adobe Illustrator 24.2.3, SVG Export Plug-In . SVG Version: 6.00 Build 0)  -->
<svg version="1.1" id="Ebene_1" xmlns="http://www.w3.org/2000/svg" xmlns:xlink="http://www.w3.org/1999/xlink" x="0px" y="0px"
	 viewBox="0 0 35 35" style="enable-background:new 0 0 35 35;" xml:space="preserve">
<style type="text/css">
	.st0{fill:#FFFFFF;}
</style>
<path class="st0" d="M26.4,26c0,2.2,0,4.2,0,6.3c0,0.8,0,0.8-0.7,0.8c-7.5,0-15.1,0-22.6,0c-0.8,0-0.8,0-0.8-0.7
	c0-7.6,0-15.2,0-22.8c0-0.5,0.2-0.6,0.6-0.6c1.8,0,3.6,0,5.3,0c0.2,0,0.4,0,0.7,0c0-0.3,0-0.5,0-0.7c0-1.9,0-3.8,0-5.8
	C8.9,2,9,1.8,9.5,1.8c7.6,0,15.2,0,22.8,0C32.8,1.8,33,2,33,2.5c0,7.6,0,15.3,0,22.9c0,0.5-0.1,0.6-0.6,0.6c-1.8,0-3.5,0-5.3,0
	C26.8,26,26.6,26,26.4,26z M2.8,32.5c7.7,0,15.4,0,23,0c0-2.2,0-4.4,0-6.5c-0.2,0-0.4,0-0.6,0c-5.2,0-10.4,0-15.6,0
	c-0.1,0-0.2,0-0.3,0C9.2,25.8,9,25.7,9,25.6c-0.1-0.3,0-0.7,0-1c0-2.2,0-4.4,0-6.6c0-0.3,0-0.6,0.4-0.6c1.9,0,3.7,0,5.6,0
	c0.1,0,0.3,0.2,0.4,0.2c-0.1,0.1-0.3,0.2-0.4,0.2c-0.8,0-1.7,0-2.5,0c-1,0-2,0-3,0c0,2.6,0,5.1,0,7.6c5.5,0,10.9,0,16.4,0
	c0-5.4,0-10.7,0-16c-7.7,0-15.4,0-23,0C2.8,17.1,2.8,24.8,2.8,32.5z M32.5,25.5c0-7.7,0-15.4,0-23.1c-7.7,0-15.4,0-23,0
	c0,2.2,0,4.3,0,6.5c0.3,0,0.5,0,0.7,0c5.2,0,10.3,0,15.5,0c0.6,0,0.7,0.1,0.7,0.7c0,5.1,0,10.1,0,15.2c0,0.2,0,0.4,0,0.6
	C28.5,25.5,30.4,25.5,32.5,25.5z"/>
<path class="st0" d="M19.2,17.6c0,0.6-0.6,1.2-1.2,1.1c-0.6,0-1.1-0.6-1.1-1.2c0-0.6,0.5-1.1,1.1-1.1C18.6,16.4,19.2,17,19.2,17.6z
	 M18.7,17.6c0-0.4-0.2-0.6-0.7-0.6c-0.4,0-0.6,0.3-0.6,0.7c0,0.4,0.2,0.6,0.6,0.6C18.4,18.3,18.6,18,18.7,17.6z"/>
</svg>
